<?xml version="1.0" encoding="UTF-8" standalone="no"?>
<!-- Created with Inkscape (http://www.inkscape.org/) -->

<svg
   xmlns:dc="http://purl.org/dc/elements/1.1/"
   xmlns:cc="http://creativecommons.org/ns#"
   xmlns:rdf="http://www.w3.org/1999/02/22-rdf-syntax-ns#"
   xmlns:svg="http://www.w3.org/2000/svg"
   xmlns="http://www.w3.org/2000/svg"
   xmlns:sodipodi="http://sodipodi.sourceforge.net/DTD/sodipodi-0.dtd"
   xmlns:inkscape="http://www.inkscape.org/namespaces/inkscape"
   width="1817.3597"
   height="391.25449"
   viewBox="0 0 480.84311 103.51941"
   version="1.1"
   id="svg8"
   inkscape:version="0.92.4 5da689c313, 2019-01-14"
   sodipodi:docname="rainforest.svg">
  <defs
     id="defs2" />
  <sodipodi:namedview
     id="base"
     pagecolor="#ffffff"
     bordercolor="#666666"
     borderopacity="1.0"
     inkscape:pageopacity="0.0"
     inkscape:pageshadow="2"
     inkscape:zoom="1.4"
     inkscape:cx="486.33554"
     inkscape:cy="59.928532"
     inkscape:document-units="mm"
     inkscape:current-layer="layer1"
     showgrid="false"
     units="px"
     inkscape:window-width="3840"
     inkscape:window-height="2024"
     inkscape:window-x="0"
     inkscape:window-y="0"
     inkscape:window-maximized="1"
     fit-margin-top="24"
     fit-margin-left="24"
     fit-margin-bottom="24"
     fit-margin-right="24" />
  <metadata
     id="metadata5">
    <rdf:RDF>
      <cc:Work
         rdf:about="">
        <dc:format>image/svg+xml</dc:format>
        <dc:type
           rdf:resource="http://purl.org/dc/dcmitype/StillImage" />
        <dc:title />
      </cc:Work>
    </rdf:RDF>
  </metadata>
  <g
     inkscape:label="Layer 1"
     inkscape:groupmode="layer"
     id="layer1"
     transform="translate(-1.4092118,-192.59692)">
    <path
       style="fill:#008033;stroke-width:5.40957355"
       d="m 40.216658,199.15636 c 0,0 -32.4574462,36.51409 -32.4574462,58.15252 A 32.457443,32.457443 0 0 0 40.216658,289.76633 32.457443,32.457443 0 0 0 72.67409,257.30888 c 0,-21.63843 -32.457432,-58.15252 -32.457432,-58.15252 z m 0,38.57697 9.039757,9.03976 h -5.423957 l 9.040274,9.04027 h -5.423957 l 9.039754,9.03976 H 43.832458 v 5.42396 h -7.231597 v -5.42396 H 23.944788 l 9.03976,-9.03976 h -5.423959 l 9.040272,-9.04027 h -5.423957 z"
       id="path4518"
       inkscape:connector-curvature="0" />
    <g
       aria-label="RAINFOREST"
       style="font-style:normal;font-weight:normal;font-size:67.80010986px;line-height:1.25;font-family:sans-serif;letter-spacing:0px;word-spacing:0px;fill:#000000;fill-opacity:1;stroke:none;stroke-width:1.69500256"
       id="text4555">
      <path
         d="m 122.73231,249.5936 -10.03442,-18.84843 q -3.11881,0.1356 -5.55961,0.1356 h -1.8984 v 18.71283 h -7.390215 v -49.83308 h 11.322615 q 8.61062,0 14.17023,3.5934 5.55961,3.52561 5.55961,11.52602 0,5.01721 -2.37301,8.67842 -2.3052,3.5934 -6.91561,5.5596 l 11.86502,20.47564 z m -12.67863,-24.88264 q 6.64442,0 9.08522,-2.84761 2.5086,-2.9154 2.5086,-6.91561 0,-8.88181 -11.86502,-8.88181 h -4.5426 v 18.64503 z"
         style="font-style:normal;font-variant:normal;font-weight:normal;font-stretch:normal;font-family:Alata;-inkscape-font-specification:Alata;stroke-width:1.69500256"
         id="path817" />
      <path
         d="m 157.44587,199.69272 24.00124,49.90088 h -8.74621 l -4.27141,-9.76322 h -22.84864 l -4.2714,9.76322 h -8.47502 l 23.86564,-49.90088 z m -3.39,21.22143 -5.42401,12.06842 h 16.81443 l -5.35621,-12.00062 -2.91541,-6.84781 h -0.1356 z"
         style="font-style:normal;font-variant:normal;font-weight:normal;font-stretch:normal;font-family:Alata;-inkscape-font-specification:Alata;stroke-width:1.69500256"
         id="path819" />
      <path
         d="m 186.53208,199.76052 h 7.59362 v 49.83308 h -7.59362 z"
         style="font-style:normal;font-variant:normal;font-weight:normal;font-stretch:normal;font-family:Alata;-inkscape-font-specification:Alata;stroke-width:1.69500256"
         id="path821" />
      <path
         d="m 212.97404,217.32075 0.2034,5.424 v 26.84885 h -7.59361 v -49.90088 h 0.9492 l 29.28965,32.67965 -0.27121,-5.69521 v -26.91664 h 7.59362 v 49.83308 h -1.017 z"
         style="font-style:normal;font-variant:normal;font-weight:normal;font-stretch:normal;font-family:Alata;-inkscape-font-specification:Alata;stroke-width:1.69500256"
         id="path823" />
      <path
         d="m 253.65404,199.76052 h 23.39104 v 6.57661 h -15.86523 v 14.10242 h 12.33962 v 6.64441 h -12.33962 v 22.50964 h -7.52581 z"
         style="font-style:normal;font-variant:normal;font-weight:normal;font-stretch:normal;font-family:Alata;-inkscape-font-specification:Alata;stroke-width:1.69500256"
         id="path825" />
      <path
         d="m 305.92775,250.2716 q -6.78001,0 -12.54302,-3.11881 -5.69521,-3.1866 -9.08521,-9.01741 -3.39001,-5.83081 -3.39001,-13.56002 0,-7.79702 3.39001,-13.56003 3.39,-5.8308 9.08521,-8.94961 5.76301,-3.1188 12.54302,-3.1188 6.78001,0 12.47522,3.1188 5.76301,3.11881 9.15302,8.94961 3.39,5.76301 3.39,13.56003 0,7.72921 -3.39,13.56002 -3.39001,5.83081 -9.15302,9.01741 -5.69521,3.11881 -12.47522,3.11881 z m 0,-6.84781 q 4.67821,0 8.54282,-2.16961 3.8646,-2.2374 6.10201,-6.44101 2.3052,-4.2714 2.3052,-10.17001 0,-5.96641 -2.3052,-10.17002 -2.23741,-4.27141 -6.10201,-6.44101 -3.79681,-2.1696 -8.54282,-2.1696 -4.746,0 -8.61061,2.1696 -3.86461,2.1696 -6.10201,6.44101 -2.2374,4.20361 -2.2374,10.17002 0,5.89861 2.3052,10.17001 2.3052,4.20361 6.16981,6.44101 3.93241,2.16961 8.47501,2.16961 z"
         style="font-style:normal;font-variant:normal;font-weight:normal;font-stretch:normal;font-family:Alata;-inkscape-font-specification:Alata;stroke-width:1.69500256"
         id="path827" />
      <path
         d="m 364.30356,249.5936 -10.03441,-18.84843 q -3.11881,0.1356 -5.55961,0.1356 h -1.8984 v 18.71283 h -7.39022 v -49.83308 h 11.32262 q 8.61062,0 14.17022,3.5934 5.55961,3.52561 5.55961,11.52602 0,5.01721 -2.373,8.67842 -2.3052,3.5934 -6.91561,5.5596 l 11.86502,20.47564 z m -12.67862,-24.88264 q 6.64441,0 9.08522,-2.84761 2.5086,-2.9154 2.5086,-6.91561 0,-8.88181 -11.86502,-8.88181 h -4.5426 v 18.64503 z"
         style="font-style:normal;font-variant:normal;font-weight:normal;font-stretch:normal;font-family:Alata;-inkscape-font-specification:Alata;stroke-width:1.69500256"
         id="path829" />
      <path
         d="m 380.71109,199.76052 h 21.83164 v 6.64441 h -14.30582 v 13.76342 h 11.52602 v 6.78001 h -11.52602 v 15.93303 h 16.54322 v 6.71221 h -24.06904 z"
         style="font-style:normal;font-variant:normal;font-weight:normal;font-stretch:normal;font-family:Alata;-inkscape-font-specification:Alata;stroke-width:1.69500256"
         id="path831" />
      <path
         d="m 423.89971,250.2716 q -4.06801,0 -8.06821,-1.4238 -4.00021,-1.42381 -5.76301,-3.18661 l 3.5934,-6.44101 q 1.42381,1.2882 4.40701,2.712 3.05101,1.35601 5.83081,1.35601 3.59341,0 5.83081,-1.69501 2.3052,-1.695 2.3052,-4.6782 0,-2.30521 -1.2204,-4.00021 -1.2204,-1.695 -2.9832,-2.7798 -1.76281,-1.15261 -5.01721,-2.77981 -3.86461,-1.8984 -5.28841,-2.8476 -6.57661,-4.40701 -6.57661,-12.20402 0,-6.44101 4.27141,-9.83102 4.2714,-3.4578 10.78021,-3.4578 6.98342,0 11.86502,4.0002 l -3.5934,6.16981 q -1.2882,-1.356 -3.66121,-2.3052 -2.3052,-1.017 -4.94941,-1.017 -3.39,0 -5.3562,1.5594 -1.89841,1.4916 -1.89841,4.47481 0,2.1018 1.2204,3.7968 1.22041,1.62721 3.05101,2.84761 1.8984,1.2204 5.08501,2.9832 3.051,1.695 4.6782,2.71201 1.62721,0.9492 3.05101,2.3052 1.9662,1.7628 3.1866,4.20361 1.22041,2.4408 1.22041,5.35621 0,4.5426 -2.10181,7.72921 -2.034,3.1866 -5.69521,4.81381 -3.5934,1.6272 -8.20381,1.6272 z"
         style="font-style:normal;font-variant:normal;font-weight:normal;font-stretch:normal;font-family:Alata;-inkscape-font-specification:Alata;stroke-width:1.69500256"
         id="path833" />
      <path
         d="m 455.49448,206.40493 h -12.74642 v -6.64441 h 33.15425 v 6.64441 h -12.88202 v 43.18867 h -7.52581 z"
         style="font-style:normal;font-variant:normal;font-weight:normal;font-stretch:normal;font-family:Alata;-inkscape-font-specification:Alata;stroke-width:1.69500256"
         id="path835" />
    </g>
    <g
       aria-label="online store"
       style="font-style:normal;font-weight:normal;font-size:40.89135742px;line-height:1.25;font-family:sans-serif;letter-spacing:0px;word-spacing:0px;fill:#000000;fill-opacity:1;stroke:none;stroke-width:1.02228379"
       id="text4555-3">
      <path
         d="m 106.42372,289.38142 q -2.90329,0 -5.15231,-1.30853 -2.249025,-1.30852 -3.475766,-3.55754 -1.22674,-2.24903 -1.22674,-4.98875 0,-2.69883 1.185849,-4.94785 1.226741,-2.24903 3.475767,-3.55755 2.24902,-1.30853 5.1932,-1.30853 2.94418,0 5.15231,1.30853 2.24903,1.30852 3.43488,3.55755 1.22674,2.24902 1.22674,4.94785 0,2.73972 -1.22674,4.98875 -1.22674,2.24902 -3.47577,3.55754 -2.20813,1.30853 -5.11142,1.30853 z m 0.12267,-3.59844 q 2.3717,0 3.72112,-1.75833 1.3903,-1.75833 1.3903,-4.41627 0,-2.65794 -1.47208,-4.45716 -1.47209,-1.84011 -3.88468,-1.84011 -2.33081,0 -3.76201,1.79922 -1.3903,1.79922 -1.3903,4.49805 0,2.61705 1.51298,4.41627 1.51298,1.75833 3.88467,1.75833 z"
         style="font-style:normal;font-variant:normal;font-weight:normal;font-stretch:normal;font-family:Alata;-inkscape-font-specification:Alata;stroke-width:1.02228379"
         id="path838" />
      <path
         d="m 120.94008,270.20337 h 4.33449 l 0.0409,3.43487 q 0.77694,-1.71743 2.45348,-2.8215 1.67655,-1.10407 3.92557,-1.10407 2.90329,0 4.45716,1.22675 1.55387,1.18584 2.08546,3.35309 0.53159,2.16724 0.53159,5.643 v 9.03699 h -4.41627 v -8.91431 q 0,-3.55755 -0.69515,-5.11142 -0.69516,-1.59476 -2.8624,-1.59476 -1.22674,0 -2.49437,0.77693 -1.26763,0.73605 -2.12635,2.16724 -0.81783,1.4312 -0.81783,3.35309 v 9.32323 h -4.41627 z"
         style="font-style:normal;font-variant:normal;font-weight:normal;font-stretch:normal;font-family:Alata;-inkscape-font-specification:Alata;stroke-width:1.02228379"
         id="path840" />
      <path
         d="m 144.82059,258.91736 h 4.37538 v 30.05514 h -4.37538 z"
         style="font-style:normal;font-variant:normal;font-weight:normal;font-stretch:normal;font-family:Alata;-inkscape-font-specification:Alata;stroke-width:1.02228379"
         id="path842" />
      <path
         d="m 155.73857,270.20337 h 4.57983 v 18.76913 h -4.57983 z m 2.24902,-3.51666 q -1.26763,0 -2.12635,-0.85871 -0.85872,-0.85872 -0.85872,-2.12636 0,-1.14495 0.85872,-1.96278 0.85872,-0.81783 2.12635,-0.81783 1.22674,0 2.08546,0.81783 0.85872,0.81783 0.85872,1.96278 0,1.26764 -0.85872,2.12636 -0.81782,0.85871 -2.08546,0.85871 z"
         style="font-style:normal;font-variant:normal;font-weight:normal;font-stretch:normal;font-family:Alata;-inkscape-font-specification:Alata;stroke-width:1.02228379"
         id="path844" />
      <path
         d="m 166.45205,270.20337 h 4.33448 l 0.0409,3.43487 q 0.77694,-1.71743 2.45348,-2.8215 1.67655,-1.10407 3.92557,-1.10407 2.90329,0 4.45716,1.22675 1.55387,1.18584 2.08546,3.35309 0.53159,2.16724 0.53159,5.643 v 9.03699 h -4.41627 v -8.91431 q 0,-3.55755 -0.69515,-5.11142 -0.69516,-1.59476 -2.8624,-1.59476 -1.22674,0 -2.49437,0.77693 -1.26763,0.73605 -2.12635,2.16724 -0.81783,1.4312 -0.81783,3.35309 v 9.32323 h -4.41626 z"
         style="font-style:normal;font-variant:normal;font-weight:normal;font-stretch:normal;font-family:Alata;-inkscape-font-specification:Alata;stroke-width:1.02228379"
         id="path846" />
      <path
         d="m 198.83795,289.38142 q -3.35309,0 -5.60211,-1.30853 -2.24903,-1.34941 -3.3122,-3.55754 -1.06318,-2.24903 -1.06318,-4.90697 0,-2.98507 1.22674,-5.23409 1.26763,-2.24903 3.47577,-3.43487 2.20813,-1.22675 4.98874,-1.22675 4.33449,0 6.41995,2.41259 2.12635,2.3717 2.12635,6.70619 0,1.10406 -0.12268,2.28991 h -13.49415 q 0.44981,2.49438 1.75833,3.59844 1.34942,1.10407 3.72112,1.10407 1.96278,0 3.23041,-0.32713 1.26764,-0.32713 2.33081,-0.89961 l 1.34942,3.14863 q -1.02229,0.65426 -2.78062,1.14496 -1.75833,0.4907 -4.2527,0.4907 z m 3.96646,-11.32691 q 0.0409,-2.53526 -1.10406,-3.55755 -1.14496,-1.06317 -3.27131,-1.06317 -4.29359,0 -4.94786,4.62072 z"
         style="font-style:normal;font-variant:normal;font-weight:normal;font-stretch:normal;font-family:Alata;-inkscape-font-specification:Alata;stroke-width:1.02228379"
         id="path848" />
      <path
         d="m 228.19788,289.38142 q -1.96278,0 -4.08913,-0.4907 -2.08546,-0.53159 -2.98507,-1.22674 l 1.47209,-3.47577 q 2.45348,1.71744 5.60211,1.71744 3.14864,0 3.14864,-1.84011 0,-0.81783 -0.65426,-1.26763 -0.65426,-0.44981 -2.33081,-1.06318 l -1.55387,-0.57248 q -2.45348,-0.98139 -3.88468,-2.3308 -1.4312,-1.39031 -1.4312,-3.63933 0,-2.57616 2.00368,-4.00736 2.04457,-1.47209 5.43855,-1.47209 1.67654,0 3.27131,0.36803 1.63565,0.36802 2.49437,0.9405 l -1.59476,3.51665 q -0.53159,-0.53158 -1.71744,-0.89961 -1.14496,-0.40891 -2.57616,-0.40891 -2.90328,0 -2.90328,1.75833 0,0.98139 0.77693,1.51298 0.77694,0.4907 2.53527,1.10407 0.16356,0.0409 1.26763,0.4498 2.61705,1.02229 3.88468,2.33081 1.26763,1.30852 1.26763,3.35309 0,2.78061 -2.12635,4.21181 -2.08546,1.4312 -5.31588,1.4312 z"
         style="font-style:normal;font-variant:normal;font-weight:normal;font-stretch:normal;font-family:Alata;-inkscape-font-specification:Alata;stroke-width:1.02228379"
         id="path850" />
      <path
         d="m 241.85559,273.80181 h -3.3122 v -3.59844 h 3.3122 v -7.64668 l 4.45716,-0.9814 v 8.62808 h 4.33448 v 3.59844 h -4.33448 v 15.17069 h -4.45716 z"
         style="font-style:normal;font-variant:normal;font-weight:normal;font-stretch:normal;font-family:Alata;-inkscape-font-specification:Alata;stroke-width:1.02228379"
         id="path852" />
      <path
         d="m 262.99635,289.38142 q -2.90328,0 -5.15231,-1.30853 -2.24902,-1.30852 -3.47576,-3.55754 -1.22674,-2.24903 -1.22674,-4.98875 0,-2.69883 1.18584,-4.94785 1.22675,-2.24903 3.47577,-3.55755 2.24902,-1.30853 5.1932,-1.30853 2.94418,0 5.15231,1.30853 2.24903,1.30852 3.43488,3.55755 1.22674,2.24902 1.22674,4.94785 0,2.73972 -1.22674,4.98875 -1.22674,2.24902 -3.47577,3.55754 -2.20813,1.30853 -5.11142,1.30853 z m 0.12268,-3.59844 q 2.3717,0 3.72111,-1.75833 1.39031,-1.75833 1.39031,-4.41627 0,-2.65794 -1.47209,-4.45716 -1.47209,-1.84011 -3.88468,-1.84011 -2.33081,0 -3.76201,1.79922 -1.3903,1.79922 -1.3903,4.49805 0,2.61705 1.51298,4.41627 1.51298,1.75833 3.88468,1.75833 z"
         style="font-style:normal;font-variant:normal;font-weight:normal;font-stretch:normal;font-family:Alata;-inkscape-font-specification:Alata;stroke-width:1.02228379"
         id="path854" />
      <path
         d="m 277.39005,270.20337 h 4.41626 v 3.68022 q 0.65427,-1.881 2.12636,-3.02596 1.47208,-1.14496 3.35309,-1.14496 1.30852,0 1.79922,0.24535 l -0.61337,4.45716 q -0.36803,-0.24535 -1.59477,-0.24535 -1.92189,0 -3.51665,1.22674 -1.55388,1.22674 -1.55388,3.92557 v 9.65036 h -4.41626 z"
         style="font-style:normal;font-variant:normal;font-weight:normal;font-stretch:normal;font-family:Alata;-inkscape-font-specification:Alata;stroke-width:1.02228379"
         id="path856" />
      <path
         d="m 301.06611,289.38142 q -3.35309,0 -5.60212,-1.30853 -2.24902,-1.34941 -3.3122,-3.55754 -1.06317,-2.24903 -1.06317,-4.90697 0,-2.98507 1.22674,-5.23409 1.26763,-2.24903 3.47576,-3.43487 2.20814,-1.22675 4.98875,-1.22675 4.33448,0 6.41994,2.41259 2.12635,2.3717 2.12635,6.70619 0,1.10406 -0.12267,2.28991 h -13.49415 q 0.44981,2.49438 1.75833,3.59844 1.34941,1.10407 3.72111,1.10407 1.96279,0 3.23042,-0.32713 1.26763,-0.32713 2.33081,-0.89961 l 1.34941,3.14863 q -1.02228,0.65426 -2.78061,1.14496 -1.75833,0.4907 -4.2527,0.4907 z m 3.96646,-11.32691 q 0.0409,-2.53526 -1.10407,-3.55755 -1.14495,-1.06317 -3.2713,-1.06317 -4.2936,0 -4.94786,4.62072 z"
         style="font-style:normal;font-variant:normal;font-weight:normal;font-stretch:normal;font-family:Alata;-inkscape-font-specification:Alata;stroke-width:1.02228379"
         id="path858" />
    </g>
  </g>
</svg>
